# xmcd
#
# Track frame offsets: 
#        150
#        12837
#        28419
#        48622
#        60668
#        78193
#        93480
#        110032
#        128388
#        144958
#
# Disc length: 2112 seconds
#
# Revision: 0
# Processed by: cddbd v1.4PL0 Copyright (c) Steve Scherf et al.
# Submitted via: ExactAudioCopy v0.90b4
#
DISCID=7e083e0a
DTITLE=PinMonkey - Speak No Evil
DYEAR=1900
DGENRE=Country
TTITLE0=Lonesome Pine Special
TTITLE1=Black Train
TTITLE2=Augusta
TTITLE3=The Devil's Front Door
TTITLE4=Love Sometimes
TTITLE5=Two Days From Knowing
TTITLE6=Cheap Motel
TTITLE7=Sweet Blossom
TTITLE8=Keep This Love
TTITLE9=Nothing But Livin'
EXTD=
EXTT0=
EXTT1=
EXTT2=
EXTT3=
EXTT4=
EXTT5=
EXTT6=
EXTT7=
EXTT8=
EXTT9=
PLAYORDER=
